<svg xmlns="http://www.w3.org/2000/svg" xmlns:xlink="http://www.w3.org/1999/xlink" contentStyleType="text/css" data-diagram-type="DESCRIPTION" height="469px" preserveAspectRatio="none" style="width:1076px;height:469px;background:#FFFFFF;" version="1.1" viewBox="0 0 1076 469" width="1076px" zoomAndPan="magnify"><?plantuml 1.2026.3beta6?><defs/><g><!--cluster TaskList--><g class="cluster" data-qualified-name="TaskList" data-source-line="2" id="ent0003"><rect fill="none" height="388.56" rx="2.5" ry="2.5" style="stroke:#181818;stroke-width:1;" width="1018" x="7" y="67.3"/><text fill="#000000" font-family="sans-serif" font-size="14" font-weight="700" lengthAdjust="spacing" textLength="65.3857" x="483.3071" y="82.2951">TaskList</text></g><!--cluster Task 1--><g class="cluster" data-qualified-name="TaskList.Task 1" data-source-line="4" id="ent0005"><rect fill="none" height="305.56" rx="2.5" ry="2.5" style="stroke:#181818;stroke-width:1;" width="274" x="39" y="118.3"/><text fill="#000000" font-family="sans-serif" font-size="14" font-weight="700" lengthAdjust="spacing" textLength="51.2559" x="150.3721" y="133.2951">Task 1</text></g><!--cluster Task 2--><g class="cluster" data-qualified-name="TaskList.Task 2" data-source-line="12" id="ent0016"><rect fill="none" height="205.29" rx="2.5" ry="2.5" style="stroke:#181818;stroke-width:1;" width="312" x="337" y="118.3"/><text fill="#000000" font-family="sans-serif" font-size="14" font-weight="700" lengthAdjust="spacing" textLength="51.2559" x="467.3721" y="133.2951">Task 2</text></g><!--cluster Task 3--><g class="cluster" data-qualified-name="TaskList.Task 3" data-source-line="19" id="ent0024"><rect fill="none" height="205.29" rx="2.5" ry="2.5" style="stroke:#181818;stroke-width:1;" width="312" x="673" y="118.3"/><text fill="#000000" font-family="sans-serif" font-size="14" font-weight="700" lengthAdjust="spacing" textLength="51.2559" x="803.3721" y="133.2951">Task 3</text></g><!--entity task1--><g class="entity" data-qualified-name="TaskList.Task 1.task1" data-source-line="5" id="ent0006"><rect fill="#F1F1F1" height="36.2969" rx="2.5" ry="2.5" style="stroke:#181818;stroke-width:0.5;" width="52.5322" x="160.73" y="153.3"/><text fill="#000000" font-family="sans-serif" font-size="14" lengthAdjust="spacing" textLength="32.5322" x="170.73" y="176.2951">Task</text></g><!--entity Context--><g class="entity" data-qualified-name="TaskList.Task 1.Context" data-source-line="6" id="ent0007"><ellipse cx="90" cy="278.59" fill="#F1F1F1" rx="8" ry="8" style="stroke:#181818;stroke-width:0.5;"/><text fill="#000000" font-family="sans-serif" font-size="14" lengthAdjust="spacing" textLength="55.0908" x="62.4546" y="308.5851">Context</text></g><!--entity State--><g class="entity" data-qualified-name="TaskList.Task 1.State" data-source-line="7" id="ent0009"><ellipse cx="187" cy="278.59" fill="#F1F1F1" rx="8" ry="8" style="stroke:#181818;stroke-width:0.5;"/><text fill="#000000" font-family="sans-serif" font-size="14" lengthAdjust="spacing" textLength="37.0576" x="168.4712" y="308.5851">State</text></g><!--entity Run--><g class="entity" data-qualified-name="TaskList.Task 1.Run" data-source-line="8" id="ent0011"><rect fill="#F1F1F1" height="36.2969" rx="2.5" ry="2.5" style="stroke:#181818;stroke-width:0.5;" width="47.4736" x="249.26" y="260.45"/><text fill="#000000" font-family="sans-serif" font-size="14" lengthAdjust="spacing" textLength="27.4736" x="259.26" y="283.4451">Run</text></g><g class="entity" data-qualified-name="TaskList.Task 1.GMN13" data-source-line="10" id="ent0014"><path d="M99.2,367.59 L99.2,407.8556 A0,0 0 0 0 99.2,407.8556 L296.7981,407.8556 A0,0 0 0 0 296.7981,407.8556 L296.7981,377.59 L286.7981,367.59 L215.54,367.59 L260.95,296.81 L207.54,367.59 L99.2,367.59 A0,0 0 0 0 99.2,367.59" fill="#FEFFDD" style="stroke:#181818;stroke-width:0.5;"/><path d="M286.7981,367.59 L286.7981,377.59 L296.7981,377.59 L286.7981,367.59" fill="#FEFFDD" style="stroke:#181818;stroke-width:0.5;"/><text fill="#000000" font-family="sans-serif" font-size="13" lengthAdjust="spacing" textLength="124.522" x="105.2" y="384.6569">User defined struct</text><text fill="#000000" font-family="sans-serif" font-size="13" lengthAdjust="spacing" textLength="176.5981" x="105.2" y="399.7897">implementing the Run trait</text></g><!--entity task2--><g class="entity" data-qualified-name="TaskList.Task 2.task2" data-source-line="13" id="ent0017"><rect fill="#F1F1F1" height="36.2969" rx="2.5" ry="2.5" style="stroke:#181818;stroke-width:0.5;" width="65.8896" x="472.06" y="153.3"/><text fill="#000000" font-family="sans-serif" font-size="14" lengthAdjust="spacing" textLength="45.8896" x="482.06" y="176.2951">Task 2</text></g><!--entity Context 2--><g class="entity" data-qualified-name="TaskList.Task 2.Context 2" data-source-line="14" id="ent0018"><ellipse cx="395" cy="278.59" fill="#F1F1F1" rx="8" ry="8" style="stroke:#181818;stroke-width:0.5;"/><text fill="#000000" font-family="sans-serif" font-size="14" lengthAdjust="spacing" textLength="68.4482" x="360.7759" y="308.5851">Context 2</text></g><!--entity State 2--><g class="entity" data-qualified-name="TaskList.Task 2.State 2" data-source-line="15" id="ent0020"><ellipse cx="505" cy="278.59" fill="#F1F1F1" rx="8" ry="8" style="stroke:#181818;stroke-width:0.5;"/><text fill="#000000" font-family="sans-serif" font-size="14" lengthAdjust="spacing" textLength="50.415" x="479.7925" y="308.5851">State 2</text></g><!--entity Run2--><g class="entity" data-qualified-name="TaskList.Task 2.Run2" data-source-line="16" id="ent0022"><rect fill="#F1F1F1" height="36.2969" rx="2.5" ry="2.5" style="stroke:#181818;stroke-width:0.5;" width="60.8311" x="572.58" y="260.45"/><text fill="#000000" font-family="sans-serif" font-size="14" lengthAdjust="spacing" textLength="40.8311" x="582.58" y="283.4451">Run 2</text></g><!--entity task3--><g class="entity" data-qualified-name="TaskList.Task 3.task3" data-source-line="20" id="ent0025"><rect fill="#F1F1F1" height="36.2969" rx="2.5" ry="2.5" style="stroke:#181818;stroke-width:0.5;" width="65.8896" x="808.06" y="153.3"/><text fill="#000000" font-family="sans-serif" font-size="14" lengthAdjust="spacing" textLength="45.8896" x="818.06" y="176.2951">Task 3</text></g><!--entity Context 3--><g class="entity" data-qualified-name="TaskList.Task 3.Context 3" data-source-line="21" id="ent0026"><ellipse cx="731" cy="278.59" fill="#F1F1F1" rx="8" ry="8" style="stroke:#181818;stroke-width:0.5;"/><text fill="#000000" font-family="sans-serif" font-size="14" lengthAdjust="spacing" textLength="68.4482" x="696.7759" y="308.5851">Context 3</text></g><!--entity State 3--><g class="entity" data-qualified-name="TaskList.Task 3.State 3" data-source-line="22" id="ent0028"><ellipse cx="841" cy="278.59" fill="#F1F1F1" rx="8" ry="8" style="stroke:#181818;stroke-width:0.5;"/><text fill="#000000" font-family="sans-serif" font-size="14" lengthAdjust="spacing" textLength="50.415" x="815.7925" y="308.5851">State 3</text></g><!--entity Run3--><g class="entity" data-qualified-name="TaskList.Task 3.Run3" data-source-line="23" id="ent0030"><rect fill="#F1F1F1" height="36.2969" rx="2.5" ry="2.5" style="stroke:#181818;stroke-width:0.5;" width="60.8311" x="908.58" y="260.45"/><text fill="#000000" font-family="sans-serif" font-size="14" lengthAdjust="spacing" textLength="40.8311" x="918.58" y="283.4451">Run 3</text></g><!--entity scheduler--><g class="entity" data-qualified-name="scheduler" data-source-line="1" id="ent0002"><rect fill="#F1F1F1" height="36.2969" rx="2.5" ry="2.5" style="stroke:#181818;stroke-width:0.5;" width="90.0889" x="971.96" y="7"/><text fill="#000000" font-family="sans-serif" font-size="14" lengthAdjust="spacing" textLength="70.0889" x="981.96" y="29.9951">Scheduler</text></g><!--link scheduler to TaskList--><g class="link" data-entity-1="ent0002" data-entity-2="ent0003" data-link-type="dependency" data-source-line="2" id="lnk4"><path d="M1017,43.55 C1017,48.2725 1017,53.7541 1017,59.7364 C1017,61.232 1017,62.7588 1017,64.313 C1017,65.0901 1017,65.8739 1017,66.6641 C1017,66.8617 1017,61.0596 1017,61.258" fill="none" id="scheduler-to-TaskList" style="stroke:#181818;stroke-width:1;"/><polygon fill="#181818" points="1017,67.258,1021,58.258,1017,62.258,1013,58.258,1017,67.258" style="stroke:#181818;stroke-width:1;"/></g><!--link task1 to Context--><g class="link" data-entity-1="ent0006" data-entity-2="ent0007" data-link-type="association" data-source-line="6" id="lnk8"><path d="M170.98,189.81 C149.67,212.91 112.88,252.79 97.31,269.67" fill="none" id="task1-Context" style="stroke:#181818;stroke-width:1;"/></g><!--link task1 to State--><g class="link" data-entity-1="ent0006" data-entity-2="ent0009" data-link-type="association" data-source-line="7" id="lnk10"><path d="M187,189.81 C187,212.91 187,252.79 187,269.67" fill="none" id="task1-State" style="stroke:#181818;stroke-width:1;"/></g><!--link task1 to Run--><g class="link" data-entity-1="ent0006" data-entity-2="ent0011" data-link-type="association" data-source-line="9" id="lnk12"><path d="M201.2,189.81 C217.14,209.29 242.83,240.71 258.78,260.21" fill="none" id="task1-Run" style="stroke:#181818;stroke-width:1;"/></g><!--link task2 to Context 2--><g class="link" data-entity-1="ent0017" data-entity-2="ent0018" data-link-type="association" data-source-line="14" id="lnk19"><path d="M486.84,189.81 C462.67,212.91 420.95,252.79 403.28,269.67" fill="none" id="task2-Context 2" style="stroke:#181818;stroke-width:1;"/></g><!--link task2 to State 2--><g class="link" data-entity-1="ent0017" data-entity-2="ent0020" data-link-type="association" data-source-line="15" id="lnk21"><path d="M505,189.81 C505,212.91 505,252.79 505,269.67" fill="none" id="task2-State 2" style="stroke:#181818;stroke-width:1;"/></g><!--link task2 to Run2--><g class="link" data-entity-1="ent0017" data-entity-2="ent0022" data-link-type="association" data-source-line="17" id="lnk23"><path d="M521.18,189.81 C539.34,209.29 568.63,240.71 586.79,260.21" fill="none" id="task2-Run2" style="stroke:#181818;stroke-width:1;"/></g><!--link task3 to Context 3--><g class="link" data-entity-1="ent0025" data-entity-2="ent0026" data-link-type="association" data-source-line="21" id="lnk27"><path d="M822.84,189.81 C798.67,212.91 756.95,252.79 739.28,269.67" fill="none" id="task3-Context 3" style="stroke:#181818;stroke-width:1;"/></g><!--link task3 to State 3--><g class="link" data-entity-1="ent0025" data-entity-2="ent0028" data-link-type="association" data-source-line="22" id="lnk29"><path d="M841,189.81 C841,212.91 841,252.79 841,269.67" fill="none" id="task3-State 3" style="stroke:#181818;stroke-width:1;"/></g><!--link task3 to Run3--><g class="link" data-entity-1="ent0025" data-entity-2="ent0030" data-link-type="association" data-source-line="24" id="lnk31"><path d="M857.18,189.81 C875.34,209.29 904.63,240.71 922.79,260.21" fill="none" id="task3-Run3" style="stroke:#181818;stroke-width:1;"/></g><?plantuml-src TO-zZi8m48JxFCN8VGhYZeA6zYf-EXfVie15OYDx8o6XlFivnia94xh9p6RyZQEQbRcq1B6lhzJqBJa1vU6dhs9MACiD3ihVVhJdmlt_ENa2pmB80gnUzaSGd-4WLZ6D2cLJOciDquCpTy-AAU_PzKPaTy6AZh5C-BNCjeCzZpRMEFemew6pDjJ0i-jhFXdTtLlgoB0s5_2LuYqxfKU4OM5HzMNH6AHDrKnLHIgHHeMJF8d39lzzMoeCAkzBrXAT_4OdPpevjybtEYdov4Kd5-daH9Vt9MieXZy0?></g></svg>